<mxfile modified="2020-02-13T07:31:53.107Z" host="www.draw.io" agent="Mozilla/5.0 (Macintosh; Intel Mac OS X 10_14_6) AppleWebKit/605.1.15 (KHTML, like Gecko) Version/13.0.5 Safari/605.1.15" etag="Y60BTxjZesJxUT9ovKUF" version="12.6.8" type="github">
  <diagram id="0PhkyZh6pTqeAU5DWifH" name="Page-1">
    <mxGraphModel dx="1374" dy="788" grid="1" gridSize="10" guides="1" tooltips="1" connect="1" arrows="1" fold="1" page="1" pageScale="1" pageWidth="827" pageHeight="1169" math="0" shadow="0">
      <root>
        <mxCell id="0"/>
        <mxCell id="1" parent="0"/>
        <mxCell id="wKzrwK8omsFbbwGm3UPk-1" value="VNF" style="rounded=1;whiteSpace=wrap;html=1;fontSize=18;verticalAlign=top;" parent="1" vertex="1">
          <mxGeometry x="42.5" y="230" width="97.5" height="75" as="geometry"/>
        </mxCell>
        <mxCell id="_eaUEFpU1vUXmYSTCjyz-28" value="VNF" style="rounded=1;whiteSpace=wrap;html=1;fontSize=18;verticalAlign=top;" parent="1" vertex="1">
          <mxGeometry x="223.25" y="230" width="97.5" height="72.5" as="geometry"/>
        </mxCell>
        <mxCell id="_eaUEFpU1vUXmYSTCjyz-30" value="VNF" style="rounded=1;whiteSpace=wrap;html=1;fontSize=18;verticalAlign=top;" parent="1" vertex="1">
          <mxGeometry x="402.5" y="230" width="97.5" height="72.5" as="geometry"/>
        </mxCell>
        <mxCell id="_eaUEFpU1vUXmYSTCjyz-9" value="HOST B" style="rounded=1;whiteSpace=wrap;html=1;fontSize=25;strokeWidth=2;spacing=0;spacingBottom=0;fillColor=none;verticalAlign=top;" parent="1" vertex="1">
          <mxGeometry x="190" y="190" width="335" height="170" as="geometry"/>
        </mxCell>
        <mxCell id="_eaUEFpU1vUXmYSTCjyz-10" value="HOST A" style="rounded=1;whiteSpace=wrap;html=1;fontSize=25;strokeWidth=2;spacing=0;spacingBottom=0;fillColor=none;verticalAlign=top;" parent="1" vertex="1">
          <mxGeometry x="15" y="190" width="160" height="170" as="geometry"/>
        </mxCell>
        <mxCell id="wKzrwK8omsFbbwGm3UPk-5" value="virtual switch" style="rounded=1;whiteSpace=wrap;html=1;fontSize=25;strokeWidth=2;spacing=0;spacingBottom=0;verticalAlign=bottom;" parent="1" vertex="1">
          <mxGeometry x="15" y="410" width="505" height="130" as="geometry"/>
        </mxCell>
        <mxCell id="_eaUEFpU1vUXmYSTCjyz-25" style="rounded=0;orthogonalLoop=1;jettySize=auto;html=1;exitX=0.75;exitY=1;exitDx=0;exitDy=0;entryX=0.75;entryY=0;entryDx=0;entryDy=0;startArrow=none;startFill=0;endArrow=classicThin;endFill=1;strokeColor=#3700CC;strokeWidth=2;fontSize=14;fillColor=#6a00ff;" parent="1" target="_eaUEFpU1vUXmYSTCjyz-29" edge="1">
          <mxGeometry relative="1" as="geometry">
            <mxPoint x="296.375" y="297.5" as="sourcePoint"/>
            <mxPoint x="296.3125" y="425" as="targetPoint"/>
          </mxGeometry>
        </mxCell>
        <mxCell id="_eaUEFpU1vUXmYSTCjyz-22" style="rounded=0;orthogonalLoop=1;jettySize=auto;html=1;exitX=0.5;exitY=1;exitDx=0;exitDy=0;entryX=0.5;entryY=0;entryDx=0;entryDy=0;startArrow=none;startFill=0;endArrow=classicThin;endFill=1;strokeColor=#3700CC;strokeWidth=2;fontSize=14;fillColor=#6a00ff;" parent="1" source="T3owfNQylt5vciqT8Fi2-1" target="_eaUEFpU1vUXmYSTCjyz-13" edge="1">
          <mxGeometry relative="1" as="geometry"/>
        </mxCell>
        <mxCell id="_eaUEFpU1vUXmYSTCjyz-23" style="edgeStyle=orthogonalEdgeStyle;rounded=0;orthogonalLoop=1;jettySize=auto;html=1;exitX=0.5;exitY=1;exitDx=0;exitDy=0;entryX=0.25;entryY=1;entryDx=0;entryDy=0;startArrow=none;startFill=0;endArrow=classicThin;endFill=1;strokeColor=#EA6B66;strokeWidth=2;fontSize=14;dashed=1;" parent="1" source="_eaUEFpU1vUXmYSTCjyz-13" target="_eaUEFpU1vUXmYSTCjyz-29" edge="1">
          <mxGeometry relative="1" as="geometry">
            <mxPoint x="247.5" y="480" as="targetPoint"/>
          </mxGeometry>
        </mxCell>
        <mxCell id="_eaUEFpU1vUXmYSTCjyz-13" value="MACsec-enabled&lt;br&gt;port" style="rounded=1;whiteSpace=wrap;html=1;fontSize=14;flipH=1;" parent="1" vertex="1">
          <mxGeometry x="42.5" y="430" width="97.5" height="50" as="geometry"/>
        </mxCell>
        <mxCell id="_eaUEFpU1vUXmYSTCjyz-24" style="rounded=0;orthogonalLoop=1;jettySize=auto;html=1;exitX=0.25;exitY=0;exitDx=0;exitDy=0;entryX=0.25;entryY=1;entryDx=0;entryDy=0;startArrow=none;startFill=0;endArrow=classicThin;endFill=1;strokeColor=#3700CC;strokeWidth=2;fontSize=14;fillColor=#6a00ff;" parent="1" edge="1" source="_eaUEFpU1vUXmYSTCjyz-29">
          <mxGeometry relative="1" as="geometry">
            <mxPoint x="247.5" y="425" as="sourcePoint"/>
            <mxPoint x="247.625" y="297.5" as="targetPoint"/>
          </mxGeometry>
        </mxCell>
        <mxCell id="_eaUEFpU1vUXmYSTCjyz-26" style="edgeStyle=orthogonalEdgeStyle;rounded=0;orthogonalLoop=1;jettySize=auto;html=1;exitX=0.75;exitY=1;exitDx=0;exitDy=0;entryX=0.5;entryY=1;entryDx=0;entryDy=0;startArrow=none;startFill=0;endArrow=classicThin;endFill=1;strokeColor=#EA6B66;strokeWidth=2;fontSize=14;dashed=1;" parent="1" source="_eaUEFpU1vUXmYSTCjyz-29" target="_eaUEFpU1vUXmYSTCjyz-31" edge="1">
          <mxGeometry relative="1" as="geometry">
            <mxPoint x="292.5" y="480" as="sourcePoint"/>
            <mxPoint x="425" y="480" as="targetPoint"/>
          </mxGeometry>
        </mxCell>
        <mxCell id="_eaUEFpU1vUXmYSTCjyz-27" style="rounded=0;orthogonalLoop=1;jettySize=auto;html=1;exitX=0.5;exitY=0;exitDx=0;exitDy=0;entryX=0.5;entryY=1;entryDx=0;entryDy=0;startArrow=none;startFill=0;endArrow=classicThin;endFill=1;strokeColor=#3700CC;strokeWidth=2;fontSize=14;fillColor=#6a00ff;" parent="1" source="_eaUEFpU1vUXmYSTCjyz-31" edge="1">
          <mxGeometry relative="1" as="geometry">
            <mxPoint x="450.875" y="425" as="sourcePoint"/>
            <mxPoint x="451.25" y="297.5" as="targetPoint"/>
          </mxGeometry>
        </mxCell>
        <mxCell id="_eaUEFpU1vUXmYSTCjyz-29" value="MACsec-enabled&lt;br&gt;port" style="rounded=1;whiteSpace=wrap;html=1;fontSize=14;flipH=1;" parent="1" vertex="1">
          <mxGeometry x="222.25" y="430" width="98.75" height="50" as="geometry"/>
        </mxCell>
        <mxCell id="_eaUEFpU1vUXmYSTCjyz-31" value="MACsec-enabled&lt;br&gt;port" style="rounded=1;whiteSpace=wrap;html=1;fontSize=14;flipH=1;" parent="1" vertex="1">
          <mxGeometry x="401.5" y="430" width="98.75" height="50" as="geometry"/>
        </mxCell>
        <mxCell id="_eaUEFpU1vUXmYSTCjyz-33" value="" style="endArrow=none;html=1;strokeColor=#EA6B66;strokeWidth=2;fontSize=14;dashed=1;" parent="1" edge="1">
          <mxGeometry width="50" height="50" relative="1" as="geometry">
            <mxPoint x="42.5" y="603" as="sourcePoint"/>
            <mxPoint x="110" y="603" as="targetPoint"/>
          </mxGeometry>
        </mxCell>
        <mxCell id="_eaUEFpU1vUXmYSTCjyz-34" value="" style="endArrow=none;html=1;strokeColor=#3700CC;strokeWidth=2;fontSize=14;fillColor=#6a00ff;" parent="1" edge="1">
          <mxGeometry width="50" height="50" relative="1" as="geometry">
            <mxPoint x="42.5" y="580" as="sourcePoint"/>
            <mxPoint x="110" y="580" as="targetPoint"/>
          </mxGeometry>
        </mxCell>
        <mxCell id="_eaUEFpU1vUXmYSTCjyz-35" value="secured by MACsec" style="text;html=1;align=center;verticalAlign=middle;resizable=0;points=[];autosize=1;fontSize=14;" parent="1" vertex="1">
          <mxGeometry x="116" y="568" width="140" height="20" as="geometry"/>
        </mxCell>
        <mxCell id="_eaUEFpU1vUXmYSTCjyz-36" value="unencrypted" style="text;html=1;align=center;verticalAlign=middle;resizable=0;points=[];autosize=1;fontSize=14;" parent="1" vertex="1">
          <mxGeometry x="117" y="591" width="90" height="20" as="geometry"/>
        </mxCell>
        <mxCell id="T3owfNQylt5vciqT8Fi2-1" value="macsec" style="rounded=1;whiteSpace=wrap;html=1;fontSize=18;align=center;" vertex="1" parent="1">
          <mxGeometry x="51.63" y="272" width="78.75" height="25" as="geometry"/>
        </mxCell>
        <mxCell id="T3owfNQylt5vciqT8Fi2-2" value="macsec" style="rounded=1;whiteSpace=wrap;html=1;fontSize=18;align=center;" vertex="1" parent="1">
          <mxGeometry x="232.62" y="271" width="78.75" height="25" as="geometry"/>
        </mxCell>
        <mxCell id="T3owfNQylt5vciqT8Fi2-3" value="macsec" style="rounded=1;whiteSpace=wrap;html=1;fontSize=18;align=center;" vertex="1" parent="1">
          <mxGeometry x="411.5" y="271" width="78.75" height="25" as="geometry"/>
        </mxCell>
      </root>
    </mxGraphModel>
  </diagram>
</mxfile>
